<?xml version="1.0" encoding="utf-8"?>
<!-- Generator: Adobe Illustrator 19.0.0, SVG Export Plug-In . SVG Version: 6.00 Build 0)  -->
<svg version="1.1" xmlns="http://www.w3.org/2000/svg" xmlns:xlink="http://www.w3.org/1999/xlink" x="0px" y="0px"
	 viewBox="0 0 412.5 208" style="enable-background:new 0 0 412.5 208;" xml:space="preserve">
<style type="text/css">
	.st0{display:none;}
	.st1{display:inline;fill:#333333;}
	.st2{display:inline;}
	.st3{font-family:'MyriadPro-Regular';}
	.st4{font-size:572px;}
	.st5{fill:#EC008C;}
	.st6{fill:#00BBEB;}
</style>
<g id="Layer_3" class="st0">
	<rect id="XMLID_2_" x="-28" y="-10" class="st1" width="460" height="230"/>
</g>
<g id="Layer_1" class="st0">
	<text id="XMLID_1_" transform="matrix(1 0 0 1 -0.2827 254.6958)" class="st2 st3 st4">∞</text>
</g>
<g id="Layer_1_copy" class="st0">
	<g id="XMLID_3_" class="st2">
		<path id="XMLID_10_" class="st5" d="M312.1,19.3c-40.4,0-68.6,24.3-94.5,49.9c-2.3,2.2-2.2,5.9,0.1,8.1
			c4.4,4.2,10.9,10.6,15.1,14.8c2.2,2.2,5.8,2.2,8,0c19.3-19.3,42-38.5,69.1-38.5c28,0,48.6,21.2,48.6,50.3
			c0,26.9-21.7,50.3-50.3,50.3c-33.2,0-78.9-50.3-78.9-50.3l-24.7-25.3c0,0-58-59.4-99.4-59.4c-50.3,0-86.9,39.5-86.9,84.7
			c0,49.2,34.3,84.7,82.4,84.7c35,0,84-39.8,84-39.8l1.4-22.8l-24.5-0.3c0,0-35.7,28.7-58.6,28.7c-28,0-48.6-21.2-48.6-50.3
			c0-26.9,21.7-50.3,50.3-50.3c33.2,0,78.9,50.3,78.9,50.3l22.9,23.5c0,0,58.9,61.2,101.2,61.2c50.3,0,86.9-39.5,86.9-84.7
			C394.4,54.8,360.7,19.3,312.1,19.3z"/>
	</g>
</g>
<g id="Layer_1_copy_2">
	<g id="XMLID_4_">
		<path id="XMLID_5_" class="st6" d="M312.1,19.3c-40.4,0-68.6,24.3-94.5,49.9c-2.3,2.2-2.2,5.9,0.1,8.1
			c4.4,4.2,10.9,10.6,15.1,14.8c2.2,2.2,5.8,2.2,8,0c19.3-19.3,42-38.5,69.1-38.5c28,0,48.6,21.2,48.6,50.3
			c0,26.9-21.7,50.3-50.3,50.3c-33.2,0-78.9-50.3-78.9-50.3l-24.7-25.3c0,0-58-59.4-99.4-59.4c-50.3,0-86.9,39.5-86.9,84.7
			c0,49.2,34.3,84.7,82.4,84.7c35,0,84-39.8,84-39.8l1.4-22.8l-24.5-0.3c0,0-35.7,28.7-58.6,28.7c-28,0-48.6-21.2-48.6-50.3
			c0-26.9,21.7-50.3,50.3-50.3c33.2,0,78.9,50.3,78.9,50.3l22.9,23.5c0,0,58.9,61.2,101.2,61.2c50.3,0,86.9-39.5,86.9-84.7
			C394.4,54.8,360.7,19.3,312.1,19.3z"/>
	</g>
</g>
</svg>
